P3
10 10
255
251 0 0 0 0 0 0 0 0 0 0 0 0 0 0 0 0 0 0 0 0 0 0 0 0 0 0 0 0 0 
0 0 0 0 0 0 0 0 253 0 0 253 0 0 0 0 0 0 0 0 0 0 0 0 0 0 0 0 0 0 
0 0 0 0 252 0 0 0 0 0 0 0 0 0 0 0 0 0 0 0 0 0 0 0 0 0 0 0 0 0 
0 0 0 0 252 0 0 0 0 0 0 0 0 0 0 0 0 0 0 0 0 0 0 0 0 0 0 0 0 0 
0 0 0 0 252 0 0 0 0 0 0 0 184 54 0 0 0 0 0 0 0 0 0 0 0 0 0 0 0 0 
0 0 0 0 252 0 0 0 0 0 0 0 0 0 0 184 54 0 0 0 0 0 0 0 0 0 0 0 0 0 
0 0 0 0 252 0 0 0 0 0 0 0 0 0 0 184 54 0 184 54 0 184 54 0 0 0 0 0 0 0 
0 0 0 0 0 0 0 0 0 0 0 0 0 0 0 0 0 0 184 54 0 184 54 0 184 54 0 184 54 0 
0 0 0 0 0 0 0 0 0 0 0 0 0 0 0 0 0 0 0 0 0 184 54 0 184 54 0 0 0 0 
0 0 0 0 0 0 0 0 0 0 0 0 0 0 0 0 0 0 0 0 0 184 54 0 0 0 0 0 0 0 
